<?xml version="1.0" encoding="utf-8"?><!-- Uploaded to: SVG Repo, www.svgrepo.com, Generator: SVG Repo Mixer Tools -->
<svg fill="#000000" width="800px" height="800px" viewBox="0 0 24 24" id="amazon" data-name="Flat Color" xmlns="http://www.w3.org/2000/svg" class="icon flat-color"><path id="secondary" d="M19.54,16a1,1,0,0,1-.85-1.53A8.53,8.53,0,0,0,20,10.83,7.23,7.23,0,0,0,17,10a1,1,0,1,1,.1-2,9.09,9.09,0,0,1,4.51,1.46,1,1,0,0,1,.44.83,10.29,10.29,0,0,1-1.61,5.24A1,1,0,0,1,19.54,16Z" style="fill: rgb(44, 169, 188);"></path><path id="primary" d="M10.72,15q-.6,0-1.2-.06a15.52,15.52,0,0,1-7.15-3.15,1,1,0,0,1-.14-1.41,1,1,0,0,1,1.4-.14A13.7,13.7,0,0,0,9.73,13a14.15,14.15,0,0,0,6.82-1.34,1,1,0,0,1,1.34.45,1,1,0,0,1-.44,1.34A16.84,16.84,0,0,1,10.72,15Z" style="fill: rgb(0, 0, 0);"></path></svg>