<svg width="42" height="41" viewBox="0 0 42 41" fill="none" xmlns="http://www.w3.org/2000/svg">
<rect x="0.5" y="0.5" width="41" height="40" rx="5" fill="white"/>
<path d="M8.428 23.5H7.204L5.732 20.972L5.244 21.396V23.5H4.172V17.788H5.244V20.476C5.34 20.3427 5.43867 20.2067 5.54 20.068C5.64667 19.9293 5.75333 19.7907 5.86 19.652L7.204 17.788H8.404L6.508 20.3L8.428 23.5ZM8.66169 21.78V20.932H10.6137V21.78H8.66169ZM15.9398 20.588C15.9398 21.228 15.8251 21.764 15.5958 22.196C15.3718 22.628 15.0464 22.9533 14.6198 23.172C14.1931 23.3907 13.6811 23.5 13.0838 23.5H11.5158V17.788H13.2438C13.7984 17.788 14.2784 17.8947 14.6838 18.108C15.0891 18.3213 15.3984 18.636 15.6118 19.052C15.8304 19.4627 15.9398 19.9747 15.9398 20.588ZM14.8198 20.62C14.8198 20.1667 14.7584 19.7933 14.6358 19.5C14.5184 19.2067 14.3398 18.9907 14.0998 18.852C13.8651 18.708 13.5744 18.636 13.2278 18.636H12.5878V22.644H13.1078C13.6838 22.644 14.1131 22.476 14.3958 22.14C14.6784 21.7987 14.8198 21.292 14.8198 20.62ZM18.639 17.788C19.1137 17.788 19.5057 17.8493 19.815 17.972C20.1243 18.0947 20.3537 18.2813 20.503 18.532C20.6523 18.7773 20.727 19.0893 20.727 19.468C20.727 19.7453 20.6817 19.9827 20.591 20.18C20.5003 20.3773 20.3777 20.5427 20.223 20.676C20.0737 20.804 19.911 20.908 19.735 20.988L21.271 23.5H20.055L18.815 21.244H18.119V23.5H17.047V17.788H18.639ZM18.591 18.644H18.119V20.404H18.607C18.8363 20.404 19.0257 20.3693 19.175 20.3C19.3297 20.2307 19.4443 20.1293 19.519 19.996C19.599 19.8627 19.639 19.6973 19.639 19.5C19.639 19.292 19.6017 19.1267 19.527 19.004C19.4523 18.876 19.3377 18.7853 19.183 18.732C19.0283 18.6733 18.831 18.644 18.591 18.644ZM25.2653 23.5L24.8253 21.988H22.8733L22.4333 23.5H21.2812L23.2013 17.764H24.4893L26.4173 23.5H25.2653ZM24.1133 19.636C24.0919 19.5507 24.0626 19.4493 24.0253 19.332C23.9933 19.2093 23.9613 19.084 23.9293 18.956C23.9026 18.828 23.8759 18.708 23.8493 18.596C23.8279 18.724 23.8013 18.852 23.7693 18.98C23.7373 19.1027 23.7053 19.22 23.6733 19.332C23.6466 19.444 23.6199 19.5453 23.5933 19.636L23.1453 21.108H24.5693L24.1133 19.636ZM29.4061 23.5L28.0141 18.82H27.9821C27.9874 18.9267 27.9954 19.0787 28.0061 19.276C28.0167 19.468 28.0247 19.6787 28.0301 19.908C28.0407 20.132 28.0461 20.3427 28.0461 20.54V23.5H27.0861V17.788H28.5581L29.9181 22.276H29.9421L31.3261 17.788H32.8061V23.5H31.7981V20.492C31.7981 20.3107 31.8007 20.1133 31.8061 19.9C31.8114 19.6813 31.8194 19.476 31.8301 19.284C31.8407 19.0867 31.8487 18.9347 31.8541 18.828H31.8221L30.3901 23.5H29.4061ZM37.4606 23.5L37.0206 21.988H35.0686L34.6286 23.5H33.4766L35.3966 17.764H36.6846L38.6126 23.5H37.4606ZM36.3086 19.636C36.2872 19.5507 36.2579 19.4493 36.2206 19.332C36.1886 19.2093 36.1566 19.084 36.1246 18.956C36.0979 18.828 36.0712 18.708 36.0446 18.596C36.0232 18.724 35.9966 18.852 35.9646 18.98C35.9326 19.1027 35.9006 19.22 35.8686 19.332C35.8419 19.444 35.8152 19.5453 35.7886 19.636L35.3406 21.108H36.7646L36.3086 19.636Z" fill="black"/>
</svg>
